<svg version="1.1" id="Layer_1" xmlns="http://www.w3.org/2000/svg" xmlns:xlink="http://www.w3.org/1999/xlink" x="0px" y="0px"
	 width="100%" viewBox="0 0 512 512" enable-background="new 0 0 512 512" xml:space="preserve">
<path fill="#2196F3" opacity="1.000000" stroke="none" 
	d="
M261.000000,513.000000 
	C258.629883,513.000000 256.259766,513.000000 253.282471,512.651245 
	C245.315674,510.212097 237.963913,508.093567 230.594986,506.036530 
	C203.155975,498.376831 175.711929,490.735260 148.268646,483.090912 
	C126.621803,477.061218 104.990219,470.975586 83.314262,465.052368 
	C77.522255,463.469696 72.540764,462.986481 72.574211,454.170044 
	C72.626312,440.436249 70.252991,426.698639 69.019974,412.952576 
	C68.225319,404.093567 67.738647,395.206726 66.923164,386.349915 
	C65.703316,373.101196 64.223106,359.876251 63.030788,346.625244 
	C62.189095,337.270966 61.744690,327.881348 60.937645,318.523468 
	C59.708889,304.275879 58.294876,290.044373 57.008293,275.801605 
	C56.267826,267.604462 55.673588,259.394043 54.924473,251.197739 
	C53.653107,237.287292 52.262768,223.387619 51.016907,209.474960 
	C50.238403,200.781326 49.707581,192.065552 48.933117,183.371521 
	C47.678997,169.292892 46.273010,155.227814 45.014690,141.149551 
	C44.237587,132.455200 43.696747,123.739609 42.904762,115.046761 
	C41.667530,101.466850 40.241257,87.904060 39.022404,74.322586 
	C38.212532,65.298302 37.672909,56.250107 36.926647,47.219692 
	C35.653221,31.810200 34.312469,16.406267 33.000000,1.000000 
	C182.022018,1.000000 331.044037,1.000000 480.533325,1.460408 
	C480.329529,12.287384 479.721954,22.658583 478.966614,33.019009 
	C478.392456,40.893799 477.665222,48.758076 476.944336,56.621372 
	C475.654266,70.693573 474.285950,84.758629 473.012543,98.832306 
	C472.256012,107.193001 471.684113,115.570534 470.912323,123.929695 
	C469.658905,137.505066 468.242981,151.065598 467.024231,164.643936 
	C466.214447,173.666199 465.720917,182.716766 464.921265,191.740067 
	C463.688507,205.650497 462.265076,219.543991 461.018921,233.453323 
	C460.240234,242.144806 459.710022,250.858475 458.941406,259.550964 
	C457.682098,273.792480 456.295410,288.022705 455.009583,302.261932 
	C454.269501,310.457458 453.681091,318.666809 452.919525,326.860168 
	C451.657806,340.434875 450.243713,353.995697 449.024628,367.574066 
	C448.214630,376.596222 447.756378,385.650360 446.918793,394.669556 
	C445.719452,407.583893 444.232605,420.471527 443.031311,433.385712 
	C442.207825,442.238068 441.740448,451.123779 440.887604,459.972778 
	C440.784149,461.046356 439.453186,462.528290 438.377808,462.890228 
	C433.754272,464.446625 429.021912,465.685181 424.314331,466.985840 
	C398.739471,474.051971 373.151245,481.070129 347.585236,488.167969 
	C327.512177,493.740845 307.449829,499.353516 287.412537,505.053223 
	C278.570343,507.568420 269.801910,510.343140 261.000000,513.000000 
M167.393372,148.491058 
	C224.106689,148.491058 280.820007,148.491058 337.687347,148.491058 
	C336.431824,165.634552 334.969543,182.395477 334.118103,199.187363 
	C333.863556,204.207214 332.377075,205.510361 327.432953,205.558716 
	C262.115540,206.197235 196.800339,207.060822 131.484512,207.863541 
	C129.367706,207.889557 127.250290,207.866806 124.502426,207.866806 
	C126.401749,226.062958 128.227707,243.556274 130.092194,261.418762 
	C196.441483,261.418762 262.454956,261.418762 328.653778,261.418762 
	C325.966614,286.183685 323.295624,310.510590 320.724701,334.848053 
	C320.393127,337.986816 319.382324,339.749176 315.972046,340.632385 
	C297.290649,345.470734 278.698456,350.652710 260.035431,355.563934 
	C258.050354,356.086334 255.686615,356.062195 253.697388,355.537598 
	C235.036591,350.616760 216.438339,345.458130 197.769196,340.570007 
	C194.845428,339.804443 193.733154,338.502747 193.493118,335.569153 
	C192.447357,322.788269 191.035904,310.035217 190.144211,297.245087 
	C189.876984,293.411713 188.807846,292.142822 184.866226,292.202911 
	C170.205566,292.426392 155.539459,292.291687 140.875397,292.291473 
	C138.412903,292.291443 135.950409,292.291473 132.888306,292.291473 
	C133.291153,297.125946 133.625519,301.385803 134.004150,305.641663 
	C136.173721,330.027985 138.413300,354.408386 140.461609,378.804871 
	C140.745972,382.191895 142.042725,383.514099 145.325287,384.409119 
	C181.438583,394.255310 217.491379,404.323242 253.589706,414.224915 
	C255.554962,414.763916 257.914062,414.857178 259.861603,414.324036 
	C296.286377,404.353302 332.666565,394.219696 369.093323,384.256165 
	C371.937164,383.478333 373.181610,382.382660 373.423889,379.334137 
	C374.611145,364.392670 376.035736,349.470093 377.376709,334.540833 
	C380.594940,298.710693 383.811310,262.880371 387.032288,227.050461 
	C389.895386,195.201431 392.775848,163.353958 395.623596,131.503571 
	C396.688171,119.596794 397.682159,107.683723 398.737030,95.440506 
	C304.119507,95.440506 209.900635,95.440506 115.206100,95.440506 
	C116.437096,113.264732 117.646523,130.776733 118.836098,148.001251 
	C119.814743,148.364304 120.123161,148.578964 120.431351,148.578644 
	C135.760345,148.562485 151.089325,148.527924 167.393372,148.491058 
z"/>
<path fill="#F9FAFA" opacity="1.000000" stroke="none" 
	d="
M166.905838,148.493210 
	C151.089325,148.527924 135.760345,148.562485 120.431351,148.578644 
	C120.123161,148.578964 119.814743,148.364304 118.836098,148.001251 
	C117.646523,130.776733 116.437096,113.264732 115.206100,95.440506 
	C209.900635,95.440506 304.119507,95.440506 398.737030,95.440506 
	C397.682159,107.683723 396.688171,119.596794 395.623596,131.503571 
	C392.775848,163.353958 389.895386,195.201431 387.032288,227.050461 
	C383.811310,262.880371 380.594940,298.710693 377.376709,334.540833 
	C376.035736,349.470093 374.611145,364.392670 373.423889,379.334137 
	C373.181610,382.382660 371.937164,383.478333 369.093323,384.256165 
	C332.666565,394.219696 296.286377,404.353302 259.861603,414.324036 
	C257.914062,414.857178 255.554962,414.763916 253.589706,414.224915 
	C217.491379,404.323242 181.438583,394.255310 145.325287,384.409119 
	C142.042725,383.514099 140.745972,382.191895 140.461609,378.804871 
	C138.413300,354.408386 136.173721,330.027985 134.004150,305.641663 
	C133.625519,301.385803 133.291153,297.125946 132.888306,292.291473 
	C135.950409,292.291473 138.412903,292.291443 140.875397,292.291473 
	C155.539459,292.291687 170.205566,292.426392 184.866226,292.202911 
	C188.807846,292.142822 189.876984,293.411713 190.144211,297.245087 
	C191.035904,310.035217 192.447357,322.788269 193.493118,335.569153 
	C193.733154,338.502747 194.845428,339.804443 197.769196,340.570007 
	C216.438339,345.458130 235.036591,350.616760 253.697388,355.537598 
	C255.686615,356.062195 258.050354,356.086334 260.035431,355.563934 
	C278.698456,350.652710 297.290649,345.470734 315.972046,340.632385 
	C319.382324,339.749176 320.393127,337.986816 320.724701,334.848053 
	C323.295624,310.510590 325.966614,286.183685 328.653778,261.418762 
	C262.454956,261.418762 196.441483,261.418762 130.092194,261.418762 
	C128.227707,243.556274 126.401749,226.062958 124.502426,207.866806 
	C127.250290,207.866806 129.367706,207.889557 131.484512,207.863541 
	C196.800339,207.060822 262.115540,206.197235 327.432953,205.558716 
	C332.377075,205.510361 333.863556,204.207214 334.118103,199.187363 
	C334.969543,182.395477 336.431824,165.634552 337.687347,148.491058 
	C280.820007,148.491058 224.106689,148.491058 166.905838,148.493210 
z"/>
</svg>