<svg version="1.1" id="Layer_1" xmlns="http://www.w3.org/2000/svg" xmlns:xlink="http://www.w3.org/1999/xlink" x="0px" y="0px"
	 width="100%" viewBox="0 0 512 512" enable-background="new 0 0 512 512" xml:space="preserve">
<path fill="#FC490B" opacity="1.000000" stroke="none" 
	d="
M42.616859,1.220849 
	C185.354233,1.000000 327.708466,1.000000 470.531342,1.000000 
	C480.990356,4.099988 483.212433,7.075472 483.272736,17.980989 
	C483.337250,29.646620 481.790741,41.218933 480.905518,52.824032 
	C480.096283,63.432854 479.245331,74.043800 478.398956,84.651085 
	C477.129211,100.564545 475.756836,116.472023 474.616821,132.393112 
	C473.571411,146.992996 472.387451,161.581680 471.241730,176.172150 
	C469.731659,195.402069 468.375122,214.644119 466.674988,233.860733 
	C465.766602,244.128433 465.083527,254.422043 464.317902,264.705383 
	C463.169678,280.127533 461.898529,295.539581 460.640442,310.953064 
	C459.842285,320.732086 459.150665,330.521210 458.386597,340.304413 
	C457.130615,356.385620 455.718353,372.456970 454.600311,388.545227 
	C453.574036,403.313843 452.072540,418.045532 451.290833,432.829712 
	C451.070709,436.993073 450.609192,441.153351 449.933411,445.229187 
	C448.710358,452.605652 444.017761,457.296906 436.987335,459.691193 
	C418.381134,466.027740 399.564423,471.713104 380.833740,477.657715 
	C357.500793,485.062958 334.203857,492.587524 310.802979,499.779175 
	C296.181885,504.272552 281.891083,509.915588 266.356720,512.738647 
	C260.645081,513.000000 255.290146,513.000000 249.467606,513.000000 
	C235.074173,510.372894 221.712616,505.750305 208.261307,501.452728 
	C164.955704,487.616852 121.561897,474.058777 78.276405,460.159332 
	C70.895836,457.789368 65.600616,453.382202 64.115959,445.571594 
	C63.375889,441.678070 63.039600,437.661255 62.754776,433.676605 
	C61.284653,413.109894 59.497437,392.566895 57.985794,372.005249 
	C56.900589,357.244019 55.684429,342.491760 54.591366,327.731262 
	C53.179371,308.663971 51.583447,289.607300 50.040543,270.548676 
	C48.859802,255.963715 47.886372,241.358536 46.673809,226.774551 
	C45.392551,211.364426 44.251144,195.942978 43.041019,180.528030 
	C41.934731,166.435684 40.736404,152.349411 39.719055,138.249847 
	C38.594162,122.659721 37.268036,107.086121 36.014999,91.506424 
	C35.228432,81.726601 34.517036,71.939003 33.772667,62.154831 
	C32.889652,50.548267 32.044109,38.939987 30.945103,27.351282 
	C30.551016,23.195717 30.567589,19.023348 30.814482,14.868330 
	C31.239470,7.716097 34.588768,2.101906 42.616859,1.220849 
z"/>

<path fill="#FFFFFF" opacity="1.000000" stroke="none" 
	d="
M386.999939,254.857117 
	C385.998444,268.448486 385.188110,281.585693 383.941498,294.681366 
	C382.709808,307.620209 381.805969,320.574005 380.881012,333.535095 
	C379.968384,346.323822 378.484619,359.070587 377.894470,371.895264 
	C377.776489,374.459106 376.694977,377.023468 377.015259,379.676880 
	C377.408112,382.931610 374.404602,382.378448 373.015472,382.829865 
	C355.005798,388.682800 336.916290,394.289978 318.851105,399.972473 
	C299.245697,406.139496 279.629883,412.274261 260.052063,418.527863 
	C255.172318,420.086548 251.041367,417.577789 246.833420,416.275604 
	C220.081543,407.996979 193.421494,399.421570 166.734833,390.932465 
	C157.638000,388.038727 148.557037,385.094940 139.454147,382.220490 
	C138.231155,381.834259 137.056992,381.968842 136.940994,379.987030 
	C136.422165,371.123291 135.736038,362.267548 134.984879,353.419556 
	C133.721130,338.533722 132.333511,323.658447 131.060608,308.773346 
	C130.668488,304.188049 131.440674,299.558838 130.100571,294.979431 
	C129.399017,292.582031 131.685867,293.019684 133.053238,293.017822 
	C151.552734,292.992676 170.052780,293.067322 188.551331,292.933197 
	C191.534698,292.911591 192.081421,293.985413 192.053726,296.664459 
	C191.929718,308.662872 192.194946,320.668488 191.876862,332.659729 
	C191.785767,336.094543 193.310074,337.235474 195.951675,337.929779 
	C215.528824,343.075104 235.157990,348.030212 254.671143,353.406769 
	C260.250702,354.944092 264.999878,352.700134 269.923523,351.456573 
	C286.873718,347.175446 303.717987,342.475952 320.620331,338.002869 
	C323.509033,337.238373 324.919281,336.268280 325.170441,332.617340 
	C326.321045,315.892822 326.929840,299.121460 328.937714,282.456787 
	C329.507385,277.728699 328.310852,272.871765 329.939606,268.174377 
	C330.376129,266.915466 329.738007,265.935028 328.132141,265.998169 
	C326.801056,266.050568 325.466034,266.000427 324.132751,266.000427 
	C260.634338,265.999969 197.135925,265.982208 133.637589,266.046021 
	C129.991501,266.049683 128.077118,266.110016 127.742218,261.063354 
	C126.915802,248.609619 125.966766,236.146500 124.910820,223.702499 
	C123.798042,210.588715 122.832001,197.471375 121.889633,184.345810 
	C120.983376,171.723221 119.793938,159.119339 118.868927,146.491058 
	C117.907875,133.370697 116.745224,120.266342 115.905075,107.130142 
	C115.127930,94.978973 114.799217,95.000000 126.764740,95.000000 
	C215.095840,95.000000 303.426941,94.999985 391.758057,95.000023 
	C399.430969,95.000023 400.645691,96.215942 398.862213,103.840576 
	C397.420502,110.004272 397.984161,116.259773 397.171692,122.455536 
	C396.150146,130.245819 395.972595,138.160080 395.149597,146.008911 
	C394.835052,149.008347 393.588379,149.039154 391.434570,149.019104 
	C385.435242,148.963211 379.435059,148.999985 373.435211,148.999985 
	C310.603455,149.000015 247.771423,149.081177 184.940491,148.853027 
	C179.649185,148.833801 178.342880,150.387726 178.966049,155.171112 
	C180.381271,166.033600 181.858322,176.897995 182.832520,187.804291 
	C183.431107,194.505692 184.216476,201.176743 184.870331,207.863159 
	C185.141815,210.639191 186.061630,211.249420 188.434235,211.015671 
	C189.424591,210.918106 190.432587,210.999954 191.432571,210.999954 
	C255.930939,210.999985 320.429382,211.042755 384.927460,210.900040 
	C389.055206,210.890915 390.456116,211.808395 390.065094,216.038422 
	C388.884827,228.805878 388.000031,241.600647 386.999939,254.857117 
z"/>
</svg>