<svg width="248" height="238" viewBox="0 0 248 238" fill="none" xmlns="http://www.w3.org/2000/svg">
<g filter="url(#filter0_bd_7_18)">
<path d="M244 115C244 178.513 190.274 230 124 230C57.7258 230 4 178.513 4 115C4 51.4873 57.7258 0 124 0C190.274 0 244 51.4873 244 115Z" fill="#2E2E30"/>
<path d="M243.5 115C243.5 178.217 190.018 229.5 124 229.5C57.9817 229.5 4.5 178.217 4.5 115C4.5 51.7832 57.9817 0.5 124 0.5C190.018 0.5 243.5 51.7832 243.5 115Z" stroke="black"/>
</g>
<path d="M20.5 151C20.5 148.515 22.5147 146.5 25 146.5H223C225.485 146.5 227.5 148.515 227.5 151C227.5 153.485 225.485 155.5 223 155.5H124H25C22.5147 155.5 20.5 153.485 20.5 151Z" fill="#6A3810" stroke="black"/>
<path d="M114.327 129C108.327 126.6 102.161 121.334 99.8272 119C101.827 119 103.661 118 104.327 117.5C102.727 117.5 100.661 115.833 99.8272 115C104.227 109.4 104.661 95.3333 104.327 89C103.527 66.2 111.327 53.8333 115.327 50.5C120.127 54.1 128.327 64.3333 131.827 69C133.827 68.2 137.66 68.6667 139.327 69C150.127 54.5998 160.16 48.9999 163.827 48C168.227 55.6 166.327 72.8333 164.827 80.5C168.027 83.3 169.494 95 169.827 100.5C169.327 102.5 172.327 111.5 172.827 112C173.227 112.4 168.994 114.167 166.827 115C166.427 115.8 169.994 116.333 171.827 116.5C171.427 118.1 166.327 122.5 163.827 124.5C171.427 127.3 173.994 136 174.327 140C177.527 139.2 180.66 136 181.827 134.5C186.227 128.5 186.327 120.667 185.827 117.5C185.427 112.7 185.327 107.5 185.327 105.5C186.527 87.5 197.827 82.6667 203.327 82.5C201.727 84.1 200.994 86.1668 200.827 87.0002C206.427 81.4002 214.16 82.3336 217.327 83.5002C213.727 87.1002 214.827 92.6669 215.827 95.0002C215.827 97.0002 221.827 106.667 225.327 111.5C231.327 119.9 227.827 127.334 225.327 130C224.527 133.2 212.66 142.334 206.827 146.5H125.327V143C123.727 141.4 114.327 143.334 109.827 144.5C103.027 146.1 97.3272 145.5 95.3272 145C92.5272 144.2 92.8272 141.334 93.3272 140C98.9272 134.4 109.661 130.334 114.327 129Z" fill="#FEA833" stroke="black"/>
<path d="M106.827 119C112.827 119.4 119.327 113.5 121.827 110.5C124.22 108 127.327 108.5 128.327 109.5C129.127 110.3 134.827 115.5 143.827 118C147.427 119 166.66 117.333 171.327 117C163.327 126.2 154.66 129.833 151.327 130.5C153.727 132.5 155.994 142 156.827 146.5H125.327C125.727 140.5 126.16 134.333 126.327 132C115.927 132 104.327 123.333 99.8271 119H106.827Z" fill="white" stroke="black"/>
<path d="M99.3271 119C102.494 121.667 110.227 127.5 115.827 129.5C117.827 130.333 123.727 132.2 131.327 133" stroke="black"/>
<path d="M171.827 117C169.994 119.333 164.627 124.8 157.827 128C155.827 129.167 150.327 131.4 144.327 131" stroke="black"/>
<path d="M152.327 143.5C152.327 139.9 154.994 137 156.327 136L160.327 145.5C159.127 146.3 156.16 146.5 154.827 146.5C152.827 146.5 152.327 144.5 152.327 143.5Z" fill="#FEA833"/>
<path d="M132.827 135.5C132.327 135.833 131.127 137 130.327 139L132.827 138C132.494 138.667 132.027 140.2 132.827 141M167.327 130.5C161.994 131.833 151.527 136.4 152.327 144C152.494 145 153.527 146.9 156.327 146.5C156.893 146.387 157.684 146.212 158.531 146M164.327 124.5C167.127 125.7 170.16 129 171.327 130.5C174.127 134.9 174.16 139.333 173.827 141C173.427 143 170.327 144.167 168.827 144.5H162.827C162.034 145.029 160.179 145.586 158.531 146M158.827 144C158.63 144.5 158.294 145.6 158.531 146" stroke="black"/>
<path d="M154.328 142.5C154.161 143.5 153.828 145.6 153.828 146M98.8276 142.5C98.4943 143.5 98.0276 145.5 98.8276 145.5M94.8273 141.5C94.6606 142.333 94.4273 144.1 94.8273 144.5" stroke="black"/>
<path d="M192.327 97.5002C190.727 97.1002 186.994 105.334 185.327 109.5C184.927 100.3 187.494 94.3334 188.827 92.5C192.027 85.6996 199.827 82.9998 203.327 82.5C202.127 82.9 200.827 86.0003 200.327 87.5005C207.127 81.101 214.827 82.1673 217.827 83.5005C213.427 86.7005 214.994 92.8333 216.327 95.4998C216.71 97.7954 221.394 105.462 223.988 109.479C224.167 109.694 224.284 109.871 224.327 110C224.219 109.835 224.106 109.66 223.988 109.479C222.509 107.691 216.801 103.231 213.827 101C212.919 101.908 213.248 107.763 213.316 108.459C213.323 108.477 213.327 108.491 213.327 108.5C213.327 108.546 213.323 108.529 213.316 108.459C213.012 107.703 206.581 99.5678 203.327 95.4998C201.727 95.0998 196.66 102.333 194.327 106C192.727 106 192.327 100.333 192.327 97.5002Z" fill="white" stroke="black"/>
<path d="M127.827 111.5C126.627 111.1 123.994 111.333 122.827 111.5C122.827 112.7 124.494 113.667 125.327 114C126.527 113.2 127.494 112 127.827 111.5Z" fill="black" stroke="black"/>
<path d="M122.827 116C122.827 117.167 123.427 118.9 125.827 116.5C126.827 117.333 129.027 118.3 129.827 115.5M104.327 93C104.161 90.5 105.027 84 109.827 78" stroke="black"/>
<path d="M123.827 74.5C123.327 74 121.327 74.5 120.327 71.5C121.66 71.6667 124.527 71.9 125.327 71.5C124.494 70.3333 122.927 67.7 123.327 66.5C124.827 67.5 128.527 69.3 131.327 68.5C133.327 68.5 137.727 68.6 139.327 69" stroke="black"/>
<path d="M160.327 78C156.727 74.8 149.827 72.3333 146.827 71.5C151.327 65.6667 161.427 52.9 163.827 48.5C164.494 49.6667 166.027 53.3 166.827 62.5C166.327 64 167.327 62 164.827 80.5C163.827 80.0568 161.527 78.9363 160.327 78Z" fill="black"/>
<path d="M109.327 97.5C108.527 96.3 107.661 96.6667 107.327 97C106.527 97.8 106.994 98.6667 107.327 99L109.827 101.5C108.227 101.9 109.161 108 109.827 111C111.427 115.4 113.494 115.5 114.327 115C115.527 114.2 116.494 112.667 116.827 112C117.227 110 117.327 107.167 117.327 106C118.127 106.8 119.327 106.667 119.827 106.5C120.327 105 119.827 105.5 119.827 105C119.827 104.6 118.161 103.5 117.327 103C116.127 102.2 111.494 99 109.327 97.5Z" fill="black"/>
<path d="M150.327 95.5L136.827 104C136.427 104.8 136.66 105 136.827 105C136.827 105.8 138.16 105.667 138.827 105.5C138.427 110.3 140.66 113.5 141.827 114.5C143.827 114.9 145.327 114.333 145.827 114C147.427 113.2 148.494 111 148.827 110C150.027 103.6 148.994 100.667 148.327 100L151.327 97.5C152.527 95.9 151.16 95.5 150.327 95.5Z" fill="black"/>
<path d="M155.827 62.5L160.327 57.5C159.827 60 158.527 65.3 157.327 66.5C158.327 66.3333 160.327 65.8 160.327 65C160.327 64 159.327 70 157.327 70.5M146.827 71.5C149.827 72.3333 156.727 74.8 160.327 78C161.527 78.9363 163.827 80.0568 164.827 80.5C167.327 62 166.327 64 166.827 62.5C166.027 53.3 164.494 49.6667 163.827 48.5C161.427 52.9 151.327 65.6667 146.827 71.5ZM107.327 97C107.661 96.6667 108.527 96.3 109.327 97.5C111.494 99 116.127 102.2 117.327 103C118.161 103.5 119.827 104.6 119.827 105C119.827 105.5 120.327 105 119.827 106.5C119.327 106.667 118.127 106.8 117.327 106C117.327 107.167 117.227 110 116.827 112C116.494 112.667 115.527 114.2 114.327 115C113.494 115.5 111.427 115.4 109.827 111C109.161 108 108.227 101.9 109.827 101.5L107.327 99C106.994 98.6667 106.527 97.8 107.327 97ZM110.327 106.5V108.5C110.494 108.833 111.027 109.5 111.827 109.5C112.16 109.5 112.827 109.3 112.827 108.5V106.5C112.66 106.167 112.227 105.5 111.827 105.5C111.494 105.333 110.727 105.3 110.327 106.5ZM136.827 104L150.327 95.5C151.16 95.5 152.527 95.9 151.327 97.5L148.327 100C148.994 100.667 150.027 103.6 148.827 110C148.494 111 147.427 113.2 145.827 114C145.327 114.333 143.827 114.9 141.827 114.5C140.66 113.5 138.427 110.3 138.827 105.5C138.16 105.667 136.827 105.8 136.827 105C136.66 105 136.427 104.8 136.827 104ZM140.327 106.5C140.619 105.833 141.566 104.8 143.015 106C143.245 106.5 143.566 107.9 143.015 109.5C142.633 110 141.561 110.6 140.327 109C140.222 108.333 140.075 106.9 140.327 106.5Z" stroke="black"/>
<path d="M145.827 72C146.627 72 158.16 56.3333 163.827 48.5C165.827 54.5 166.66 60.6667 166.827 63C167.227 69.4 165.66 77.6667 164.827 81C162.827 79.4 159.994 77.6667 158.827 77C155.627 75 148.827 72.8333 145.827 72Z" fill="#F5F5F5" stroke="black"/>
<path d="M157.327 63.5C157.827 63.5 159.127 62.9 160.327 60.5C160.16 62.1667 159.427 65.9 157.827 67.5C158.827 67.3333 160.927 66.8 161.327 66C161.327 66.8333 160.427 68.9 156.827 70.5" stroke="black"/>
<ellipse cx="141.837" cy="107.748" rx="1.88241" ry="2.19172" transform="rotate(-3.41553 141.837 107.748)" fill="white"/>
<ellipse cx="111.541" cy="107.558" rx="1.65505" ry="2.02159" transform="rotate(-1.68443 111.541 107.558)" fill="white"/>
<path d="M24.5001 94.0003C24.1668 91.667 24.6001 87.0003 29.0001 87.0003H85C86.1667 86.5003 88.9 86.7003 90.5 91.5003L104.5 140H133C135.333 141 138.9 144 134.5 148H104.5H43.5C42.5 147 40.8 144.7 42 143.5C40.8333 143.833 38.2 143.6 37 140L24.5001 94.0003Z" fill="#B2B2B2"/>
<path d="M85 87.0003H29.0001C24.6001 87.0003 24.1668 91.667 24.5001 94.0003L37 140C38.2 143.6 40.8333 143.833 42 143.5M85 87.0003C86.1667 86.5003 88.9 86.7003 90.5 91.5003L104.5 140M85 87.0003C81.4 87.0003 81.1667 91.0001 81.5 93L95.5 143.5M104.5 140H133C135.333 141 138.9 144 134.5 148H104.5M104.5 140C104.027 140.852 102.866 142.122 101 142.915M42 143.5C40.8 144.7 42.5 147 43.5 148H104.5M42 143.5H95.5M95.5 143.5C97.748 143.846 99.5787 143.519 101 142.915M104.5 148C102.833 147.777 99.8 146.447 101 142.915" stroke="black"/>
<path d="M130.5 144H126.5" stroke="black"/>
<path d="M125 144H121" stroke="black"/>
<ellipse cx="57.9998" cy="117.5" rx="4" ry="5.5" transform="rotate(-11.9914 57.9998 117.5)" fill="#D9D9D9"/>
<path d="M202 123.5H178.5L180.5 153.5H199.5C199.9 148.3 201.333 131.333 202 123.5Z" fill="#FCEDDD" stroke="black"/>
<path d="M201.5 128H178.5L180 144.5H200.5L201.5 128Z" fill="#BE785E" stroke="black"/>
<path d="M204.656 123C203.456 123.4 184.49 123.167 175.156 123C174.356 119.8 176.823 118.667 178.156 118.5C177.99 117.5 178.056 115.3 179.656 114.5H199.156C199.823 115 201.156 116.5 201.156 118.5C203.956 118.5 204.656 121.5 204.656 123Z" fill="#5F4A39"/>
<path d="M201.156 118.5C203.956 118.5 204.656 121.5 204.656 123C203.456 123.4 184.49 123.167 175.156 123C174.356 119.8 176.823 118.667 178.156 118.5M201.156 118.5H178.156M201.156 118.5C201.156 116.5 199.823 115 199.156 114.5H179.656C178.056 115.3 177.99 117.5 178.156 118.5" stroke="black"/>
<path d="M190.5 109.5C190.5 108.5 190.1 106.4 188.5 106H181C179.667 105.167 177.9 103.2 181.5 102H197C198.167 101.5 199.8 100.2 197 99H184.5" stroke="#FCEDDD"/>
<path d="M181.5 99H179.5" stroke="#FCEDDD"/>
<path d="M176.5 96H185.5" stroke="#FCEDDD"/>
<defs>
<filter id="filter0_bd_7_18" x="0" y="-4" width="248" height="242" filterUnits="userSpaceOnUse" color-interpolation-filters="sRGB">
<feFlood flood-opacity="0" result="BackgroundImageFix"/>
<feGaussianBlur in="BackgroundImageFix" stdDeviation="2"/>
<feComposite in2="SourceAlpha" operator="in" result="effect1_backgroundBlur_7_18"/>
<feColorMatrix in="SourceAlpha" type="matrix" values="0 0 0 0 0 0 0 0 0 0 0 0 0 0 0 0 0 0 127 0" result="hardAlpha"/>
<feOffset dy="4"/>
<feGaussianBlur stdDeviation="2"/>
<feComposite in2="hardAlpha" operator="out"/>
<feColorMatrix type="matrix" values="0 0 0 0 0 0 0 0 0 0 0 0 0 0 0 0 0 0 0.25 0"/>
<feBlend mode="normal" in2="effect1_backgroundBlur_7_18" result="effect2_dropShadow_7_18"/>
<feBlend mode="normal" in="SourceGraphic" in2="effect2_dropShadow_7_18" result="shape"/>
</filter>
</defs>
</svg>
